<svg xmlns="http://www.w3.org/2000/svg" viewBox="0 0 800 600" fill="none">
  <ellipse cx="400" cy="520" rx="280" ry="24" fill="#e2e8f0"/>
  <rect x="220" y="360" width="360" height="14" rx="7" fill="#cbd5e1"/>
  <path d="M260 374h320v8c0 8-6 14-14 14H274c-8 0-14-6-14-14v-8z" fill="#94a3b8"/>
  <rect x="280" y="280" width="240" height="90" rx="6" fill="#64748b"/>
  <rect x="290" y="290" width="220" height="70" rx="4" fill="#0f172a"/>
  <rect x="305" y="305" width="70" height="5" rx="2.5" fill="#f43f5e"/>
  <rect x="305" y="318" width="110" height="5" rx="2.5" fill="#38bdf8"/>
  <rect x="305" y="331" width="90" height="5" rx="2.5" fill="#a78bfa"/>
  <rect x="305" y="344" width="60" height="5" rx="2.5" fill="#34d399"/>
  <circle cx="520" cy="200" r="52" fill="#fcd9b6"/>
  <path d="M468 175c8-28 36-48 68-44 32 4 54 30 52 58-2 28-28 48-56 46-28-2-52-22-64-60z" fill="#334155"/>
  <path d="M468 200c-6 18-2 38 10 52 12 14 30 22 48 22s36-8 48-22c12-14 16-34 10-52" fill="#fcd9b6"/>
  <path d="M420 252c-8 42 4 88 32 118 28 30 68 46 108 46h4c40 0 80-16 108-46 28-30 40-76 32-118l-284 0z" fill="#f43f5e"/>
  <path d="M400 310c-20 8-36 24-44 44-8 20-6 42 6 60 24-16 42-40 50-68 8-28 6-56-12-36z" fill="#e11d48"/>
  <circle cx="488" cy="192" r="6" fill="#334155"/>
  <circle cx="512" cy="192" r="6" fill="#334155"/>
  <path d="M494 212c8 4 18 4 26 0" stroke="#334155" stroke-width="3" stroke-linecap="round"/>
  <circle cx="140" cy="120" r="40" fill="#fef2f2"/>
  <circle cx="680" cy="160" r="56" fill="#f5f3ff"/>
  <rect x="120" y="200" width="48" height="48" rx="8" fill="#fecdd3" transform="rotate(-12 144 224)"/>
</svg>
