<svg xmlns="http://www.w3.org/2000/svg" viewBox="0 0 800 600" fill="none">
  <circle cx="400" cy="300" r="200" fill="#f8fafc"/>
  <rect x="240" y="180" width="320" height="280" rx="16" fill="#fff" stroke="#e2e8f0" stroke-width="2"/>
  <rect x="270" y="220" width="180" height="10" rx="5" fill="#e2e8f0"/>
  <rect x="270" y="250" width="240" height="10" rx="5" fill="#e2e8f0"/>
  <rect x="270" y="280" width="200" height="10" rx="5" fill="#e2e8f0"/>
  <rect x="270" y="310" width="220" height="10" rx="5" fill="#e2e8f0"/>
  <rect x="270" y="340" width="160" height="10" rx="5" fill="#fecdd3"/>
  <rect x="270" y="370" width="190" height="10" rx="5" fill="#e2e8f0"/>
  <circle cx="560" cy="200" r="80" fill="none" stroke="#f43f5e" stroke-width="8"/>
  <line x1="560" y1="100" x2="560" y2="130" stroke="#f43f5e" stroke-width="6" stroke-linecap="round"/>
  <line x1="560" y1="270" x2="560" y2="300" stroke="#f43f5e" stroke-width="6" stroke-linecap="round"/>
  <line x1="460" y1="200" x2="490" y2="200" stroke="#f43f5e" stroke-width="6" stroke-linecap="round"/>
  <line x1="630" y1="200" x2="660" y2="200" stroke="#f43f5e" stroke-width="6" stroke-linecap="round"/>
  <circle cx="560" cy="200" r="36" fill="#fff" stroke="#f43f5e" stroke-width="4"/>
  <line x1="544" y1="200" x2="576" y2="200" stroke="#f43f5e" stroke-width="4" stroke-linecap="round"/>
  <line x1="560" y1="184" x2="560" y2="216" stroke="#f43f5e" stroke-width="4" stroke-linecap="round"/>
  <circle cx="160" cy="160" r="32" fill="#fef2f2"/>
  <rect x="140" y="400" width="40" height="40" rx="8" fill="#ede9fe" transform="rotate(15 160 420)"/>
</svg>
