<svg xmlns="http://www.w3.org/2000/svg" viewBox="0 0 800 600" fill="none">
  <circle cx="400" cy="300" r="200" fill="#f8fafc"/>
  <rect x="220" y="200" width="200" height="140" rx="20" fill="#fff" stroke="#e2e8f0" stroke-width="2"/>
  <circle cx="270" cy="250" r="8" fill="#f43f5e"/>
  <rect x="290" y="246" width="100" height="8" rx="4" fill="#e2e8f0"/>
  <rect x="250" y="276" width="140" height="8" rx="4" fill="#e2e8f0"/>
  <rect x="250" y="300" width="120" height="8" rx="4" fill="#fecdd3"/>
  <rect x="380" y="160" width="200" height="140" rx="20" fill="#f43f5e"/>
  <circle cx="430" cy="210" r="8" fill="#fff"/>
  <rect x="450" y="206" width="100" height="8" rx="4" fill="#fda4af"/>
  <rect x="410" y="236" width="140" height="8" rx="4" fill="#fda4af"/>
  <rect x="410" y="260" width="100" height="8" rx="4" fill="#fff" opacity="0.6"/>
  <path d="M300 400c40-20 160-20 200 0" stroke="#cbd5e1" stroke-width="3" stroke-dasharray="10 10" stroke-linecap="round"/>
  <circle cx="160" cy="160" r="28" fill="#ede9fe"/>
  <circle cx="660" cy="380" r="20" fill="#fef2f2"/>
</svg>
