<svg xmlns="http://www.w3.org/2000/svg" viewBox="0 0 500 500"><g id="background-complete"><rect y="382.4" width="500" height="0.25" style="fill:#ebebeb"></rect><rect x="416.78" y="398.49" width="33.12" height="0.25" style="fill:#ebebeb"></rect><rect x="322.53" y="401.21" width="8.69" height="0.25" style="fill:#ebebeb"></rect><rect x="396.59" y="389.21" width="19.19" height="0.25" style="fill:#ebebeb"></rect><rect x="52.46" y="390.89" width="43.19" height="0.25" style="fill:#ebebeb"></rect><rect x="104.56" y="390.89" width="6.33" height="0.25" style="fill:#ebebeb"></rect><rect x="131.47" y="395.11" width="93.68" height="0.25" style="fill:#ebebeb"></rect><path d="M237,337.8H43.91a5.71,5.71,0,0,1-5.7-5.71V60.66A5.71,5.71,0,0,1,43.91,55H237a5.71,5.71,0,0,1,5.71,5.71V332.09A5.71,5.71,0,0,1,237,337.8ZM43.91,55.2a5.46,5.46,0,0,0-5.45,5.46V332.09a5.46,5.46,0,0,0,5.45,5.46H237a5.47,5.47,0,0,0,5.46-5.46V60.66A5.47,5.47,0,0,0,237,55.2Z" style="fill:#ebebeb"></path><path d="M453.31,337.8H260.21a5.72,5.72,0,0,1-5.71-5.71V60.66A5.72,5.72,0,0,1,260.21,55h193.1A5.71,5.71,0,0,1,459,60.66V332.09A5.71,5.71,0,0,1,453.31,337.8ZM260.21,55.2a5.47,5.47,0,0,0-5.46,5.46V332.09a5.47,5.47,0,0,0,5.46,5.46h193.1a5.47,5.47,0,0,0,5.46-5.46V60.66a5.47,5.47,0,0,0-5.46-5.46Z" style="fill:#ebebeb"></path><rect x="180.9" y="245.7" width="22.98" height="136.7" transform="translate(384.78 628.09) rotate(180)" style="fill:#e6e6e6"></rect><polygon points="185.26 382.4 180.9 382.4 180.9 369.98 189.84 369.98 185.26 382.4" style="fill:#f0f0f0"></polygon><rect x="296.41" y="245.7" width="22.98" height="136.7" transform="translate(615.8 628.09) rotate(180)" style="fill:#e6e6e6"></rect><rect x="180.9" y="245.7" width="119.32" height="129.08" transform="translate(481.12 620.48) rotate(180)" style="fill:#f0f0f0"></rect><path d="M184.29,249.08H296.83v24.45H184.29V249.08Z" style="fill:#e6e6e6"></path><path d="M184.29,276.34h54.8v82.92h-54.8V276.34Z" style="fill:#e6e6e6"></path><path d="M242,276.34h54.81v82.92H242V276.34Z" style="fill:#e6e6e6"></path><path d="M254.28,285.1a3.88,3.88,0,1,1-3.88-3.88A3.88,3.88,0,0,1,254.28,285.1Z" style="fill:#fafafa"></path><circle cx="230.72" cy="285.1" r="3.88" style="fill:#fafafa"></circle><polygon points="295.85 382.4 300.22 382.4 300.22 369.98 291.28 369.98 295.85 382.4" style="fill:#f0f0f0"></polygon><circle cx="240.05" cy="261.49" r="3.88" style="fill:#fafafa"></circle><rect x="305.52" y="245.7" width="22.98" height="136.7" transform="translate(634.03 628.09) rotate(180)" style="fill:#e6e6e6"></rect><polygon points="309.89 382.4 305.52 382.4 305.52 369.98 314.46 369.98 309.89 382.4" style="fill:#f0f0f0"></polygon><rect x="421.03" y="245.7" width="22.98" height="136.7" transform="translate(865.05 628.09) rotate(180)" style="fill:#e6e6e6"></rect><rect x="305.52" y="245.7" width="119.32" height="129.08" transform="translate(730.37 620.48) rotate(180)" style="fill:#f0f0f0"></rect><path d="M308.91,249.08h54.81V359.26H308.91V249.08Z" style="fill:#e6e6e6"></path><path d="M366.65,249.08h54.81V359.26H366.65V249.08Z" style="fill:#e6e6e6"></path><circle cx="375.03" cy="257.85" r="3.88" style="fill:#fafafa"></circle><circle cx="355.34" cy="257.85" r="3.88" style="fill:#fafafa"></circle><polygon points="420.48 382.4 424.84 382.4 424.84 369.98 415.9 369.98 420.48 382.4" style="fill:#f0f0f0"></polygon><polygon points="210.99 144.45 206.18 144.45 189.69 137.15 209.38 137.15 210.99 144.45" style="fill:#e6e6e6"></polygon><polygon points="208.2 144.45 203.39 144.45 186.9 137.15 191.72 137.15 208.2 144.45" style="fill:#f5f5f5"></polygon><polygon points="94.28 144.45 89.47 144.45 72.99 137.15 92.67 137.15 94.28 144.45" style="fill:#e6e6e6"></polygon><polygon points="91.49 144.45 86.69 144.45 70.2 137.15 75.01 137.15 91.49 144.45" style="fill:#f5f5f5"></polygon><rect x="190.81" y="129.65" width="32.08" height="7.5" style="fill:#e6e6e6"></rect><rect x="58.05" y="129.65" width="132.76" height="7.5" transform="translate(248.85 266.8) rotate(180)" style="fill:#f5f5f5"></rect><path d="M184.3,113.82c0,8.7-19.14,15.83-42.52,15.83H120.67c-23.39,0-42.53-7.13-42.53-15.83Z" style="fill:#f0f0f0"></path><path d="M184.3,102.81c0,8.71-19.14,15.83-42.52,15.83H120.67c-23.39,0-42.53-7.12-42.53-15.83Z" style="fill:#f0f0f0"></path><polygon points="423.23 144.45 418.42 144.45 401.93 137.15 421.62 137.15 423.23 144.45" style="fill:#e6e6e6"></polygon><polygon points="420.44 144.45 415.63 144.45 399.14 137.15 403.96 137.15 420.44 144.45" style="fill:#f5f5f5"></polygon><polygon points="306.52 144.45 301.71 144.45 285.23 137.15 304.91 137.15 306.52 144.45" style="fill:#e6e6e6"></polygon><polygon points="303.73 144.45 298.92 144.45 282.44 137.15 287.25 137.15 303.73 144.45" style="fill:#f5f5f5"></polygon><rect x="403.04" y="129.65" width="32.08" height="7.5" style="fill:#e6e6e6"></rect><rect x="270.28" y="129.65" width="132.76" height="7.5" transform="translate(673.33 266.8) rotate(180)" style="fill:#f5f5f5"></rect><path d="M351.26,109.78a23.37,23.37,0,0,1-11,19.87H315.47a23.42,23.42,0,0,1-8.78-29.89H349A23.32,23.32,0,0,1,351.26,109.78Z" style="fill:#f0f0f0"></path><path d="M355.89,108.11c2.05,3.57.58,8.26.58,8.26s-4.78-1.11-6.83-4.69-.58-8.26-.58-8.26S353.85,104.53,355.89,108.11Z" style="fill:#e6e6e6"></path><path d="M349.82,119.08c-.49,4.09-4.47,7-4.47,7s-3.18-3.75-2.68-7.84,4.48-7,4.48-7S350.32,115,349.82,119.08Z" style="fill:#e6e6e6"></path><path d="M365.18,117.26c.8,4-2.09,8-2.09,8s-4.18-2.58-5-6.62,2.09-8,2.09-8S364.38,113.22,365.18,117.26Z" style="fill:#e6e6e6"></path><path d="M362.91,100.74c-.51,4.08-4.5,7-4.5,7s-3.16-3.76-2.65-7.85,4.5-7,4.5-7S363.42,96.65,362.91,100.74Z" style="fill:#e6e6e6"></path><path d="M355.92,125.73c-1.77,3.71-6.46,5.17-6.46,5.17s-1.81-4.56,0-8.28,6.47-5.17,6.47-5.17S357.7,122,355.92,125.73Z" style="fill:#e6e6e6"></path><path d="M326.28,94.41c3.39-2.34,8.19-1.28,8.19-1.28s-.7,4.86-4.09,7.2-8.18,1.28-8.18,1.28S322.9,96.75,326.28,94.41Z" style="fill:#e6e6e6"></path><path d="M342.46,97.18c-1,4-5.34,6.33-5.34,6.33s-2.66-4.13-1.64-8.12,5.34-6.33,5.34-6.33S343.48,93.19,342.46,97.18Z" style="fill:#e6e6e6"></path><path d="M351.26,91.27c2.37,3.37,1.33,8.17,1.33,8.17s-4.87-.67-7.23-4S344,87.22,344,87.22,348.9,87.89,351.26,91.27Z" style="fill:#e6e6e6"></path><path d="M356.23,87c3.79,1.6,5.47,6.21,5.47,6.21s-4.48,2-8.27.42S348,87.41,348,87.41,352.43,85.39,356.23,87Z" style="fill:#e6e6e6"></path><path d="M349.82,100.9c-.13,4.11-3.83,7.34-3.83,7.34s-3.5-3.44-3.37-7.56,3.82-7.35,3.82-7.35S349.94,96.78,349.82,100.9Z" style="fill:#e6e6e6"></path><path d="M360.73,155c-.52,4.08-4.52,6.93-4.52,6.93s-3.15-3.77-2.62-7.86,4.53-6.93,4.53-6.93S361.26,150.93,360.73,155Z" style="fill:#e6e6e6"></path><path d="M351,151.26c.24,4.11-3.15,7.66-3.15,7.66s-3.8-3.12-4.05-7.23S347,144,347,144,350.77,147.15,351,151.26Z" style="fill:#e6e6e6"></path><path d="M349.92,135.88c-1.81,3.7-6.51,5.13-6.51,5.13s-1.77-4.58,0-8.28,6.5-5.13,6.5-5.13S351.72,132.18,349.92,135.88Z" style="fill:#e6e6e6"></path><path d="M370.77,153.38c-2.87,3-7.78,2.82-7.78,2.82s-.25-4.9,2.63-7.85,7.78-2.83,7.78-2.83S373.65,150.43,370.77,153.38Z" style="fill:#e6e6e6"></path><path d="M351.77,164.42c-1.93,2.9-6,3.56-6,3.56s-1-4,.95-6.93,6-3.56,6-3.56S353.7,161.52,351.77,164.42Z" style="fill:#e6e6e6"></path><path d="M359.13,163.48c.24,3,3.07,5.26,3.07,5.26s2.45-2.65,2.21-5.68-3.07-5.26-3.07-5.26S358.89,160.46,359.13,163.48Z" style="fill:#e6e6e6"></path><path d="M352.4,167a7.13,7.13,0,0,0-.87,4.93,5.75,5.75,0,0,0,5.26-7.32A7.09,7.09,0,0,0,352.4,167Z" style="fill:#e6e6e6"></path><path d="M369.3,140.8a7.11,7.11,0,0,0,4.7,1.71,5.75,5.75,0,0,0-6.29-6.45A7.07,7.07,0,0,0,369.3,140.8Z" style="fill:#e6e6e6"></path><path d="M337.45,110.79a7.11,7.11,0,0,0-1.71,4.7,5.73,5.73,0,0,0,6.45-6.28A7.1,7.1,0,0,0,337.45,110.79Z" style="fill:#e6e6e6"></path><path d="M360.28,127.75c1.16,3.95-1.34,8.17-1.34,8.17s-4.4-2.18-5.57-6.13,1.34-8.17,1.34-8.17S359.11,123.8,360.28,127.75Z" style="fill:#e6e6e6"></path><path d="M356.74,137.31c-1.43,3.86-6,5.75-6,5.75s-2.22-4.38-.8-8.25,6-5.75,6-5.75S358.17,133.44,356.74,137.31Z" style="fill:#e6e6e6"></path><path d="M367.21,138.8c-.16,4.12-3.88,7.32-3.88,7.32s-3.48-3.48-3.32-7.59,3.88-7.32,3.88-7.32S367.36,134.68,367.21,138.8Z" style="fill:#e6e6e6"></path><path d="M368.44,126.28c2.06,3.56.61,8.26.61,8.26s-4.79-1.1-6.85-4.66-.61-8.26-.61-8.26S366.38,122.71,368.44,126.28Z" style="fill:#e6e6e6"></path><path d="M360.24,145.6c-2.58,3.21-7.48,3.55-7.48,3.55s-.71-4.86,1.87-8.07,7.49-3.55,7.49-3.55S362.82,142.39,360.24,145.6Z" style="fill:#e6e6e6"></path><polygon points="172.42 173.22 79.53 173.22 65 382.4 157.89 382.4 172.42 173.22" style="fill:#f5f5f5"></polygon><polygon points="172.42 173.22 174.2 173.22 159.66 382.4 157.89 382.4 172.42 173.22" style="fill:#e6e6e6"></polygon></g><g id="background-simple"><path d="M246.73,116.85c53.87,5.47,171.85-25,160.48,83-7.45,70.84-122.65,126.31-182,120.8C158.48,314.49,97.79,252.74,95,179.94,93.5,141.15,113.4,99.46,151.73,91.4,185.44,84.31,214.2,113.55,246.73,116.85Z" style="fill:#e11d48"></path><path d="M246.73,116.85c53.87,5.47,171.85-25,160.48,83-7.45,70.84-122.65,126.31-182,120.8C158.48,314.49,97.79,252.74,95,179.94,93.5,141.15,113.4,99.46,151.73,91.4,185.44,84.31,214.2,113.55,246.73,116.85Z" style="fill:#fff;opacity:0.9"></path></g><g id="Shadow"><ellipse id="path" cx="250" cy="416.24" rx="193.89" ry="11.32" style="fill:#f5f5f5"></ellipse></g><g id="Statistics"><g style="opacity:0.6000000000000001"><path d="M199.49,165.47c-35.27-2.43-72.92,6.39-108.19,25.35-1.93,1-3.5.32-3.5-1.66V140.28a7,7,0,0,1,3.5-5.5c35.27-19,72.92-27.78,108.19-25.35a3.89,3.89,0,0,1,3.5,3.86v48.88A3.23,3.23,0,0,1,199.49,165.47Z" style="fill:#e11d48"></path><path d="M122.3,149q-9.33,7.68-18.55,16.27c-3.59-6.06-2-16.17,4-24.95,7-10.13,18.15-15.29,26.35-11.95Q128.21,138.46,122.3,149Z" style="opacity:0.30000000000000004"></path><path d="M122.3,149q5.91-10.5,11.85-20.63a12.69,12.69,0,0,1,2.76,1.5c8,5.8,8,18.87,0,28.94s-21.21,14.79-29.11,10.45a10.77,10.77,0,0,1-4-4Q113,156.65,122.3,149Z" style="fill:#fff"></path><path d="M178.68,134.64c-2.59.13-5.18.33-7.78.58v23.09q3.9-.37,7.78-.58Z" style="fill:#fff"></path><path d="M165.43,148.11q-3.92.49-7.83,1.15v10.82q3.92-.66,7.83-1.16Z" style="fill:#fff"></path><path d="M165.43,148.11q-3.92.49-7.83,1.15v-6.59q3.92-.66,7.83-1.16Z" style="opacity:0.30000000000000004"></path><path d="M178.68,134.64c-2.59.13-5.18.33-7.78.58V121.13q3.9-.37,7.78-.58Z" style="opacity:0.30000000000000004"></path><path d="M191.79,138.64q-3.84-.09-7.69,0v18.89c2.57-.06,5.14-.05,7.69,0Z" style="fill:#fff"></path><path d="M191.79,138.64q-3.84-.09-7.69,0V130c2.57-.06,5.14-.06,7.69,0Z" style="opacity:0.30000000000000004"></path></g><g style="opacity:0.6000000000000001"><path d="M383.91,207.56c-35.27-19-72.92-27.94-108.19-25.58a3.23,3.23,0,0,1-3.5-3.3V129.79a3.88,3.88,0,0,1,3.5-3.85c35.27-2.35,72.92,6.55,108.19,25.59a7,7,0,0,1,3.5,5.5q0,24.43,0,48.88C387.41,207.89,385.85,208.61,383.91,207.56Z" style="fill:#e11d48"></path><g style="opacity:0.2"><path d="M378.59,196.26c-29.09-14.76-59.62-22.69-89-23.14v-39c29.34.46,59.87,8.38,89,23.15Zm-88.37-23.73c29,.55,59.07,8.37,87.79,22.85V157.56c-28.72-14.48-58.82-22.3-87.79-22.85Z" style="fill:#fff"></path><path d="M378.3,163.19c-28.9-14.62-59.22-22.49-88.38-23v-.59c29.16.51,59.48,8.37,88.38,23Z" style="fill:#fff"></path><path d="M378.3,168.68c-28.9-14.62-59.22-22.49-88.38-23v-.59c29.16.5,59.48,8.37,88.38,23Z" style="fill:#fff"></path><path d="M378.3,174.17c-28.9-14.63-59.22-22.5-88.38-23v-.59c29.16.5,59.48,8.37,88.38,23Z" style="fill:#fff"></path><path d="M378.3,179.65c-28.9-14.62-59.22-22.49-88.38-23v-.6c29.16.51,59.48,8.38,88.38,23Z" style="fill:#fff"></path><path d="M378.3,185.14c-28.9-14.62-59.22-22.49-88.38-23v-.59c29.16.51,59.48,8.37,88.38,23Z" style="fill:#fff"></path><path d="M378.3,190.63c-28.9-14.62-59.22-22.49-88.38-23V167c29.16.5,59.48,8.37,88.38,23Z" style="fill:#fff"></path><path d="M286.7,137.76c-.9,0-1.81,0-2.71,0v-1.27c.9,0,1.81,0,2.71,0Z" style="fill:#fff"></path><path d="M286.7,143.25c-.9,0-1.81,0-2.71,0V142l2.71,0Z" style="fill:#fff"></path><path d="M286.7,148.74c-.9,0-1.81,0-2.71,0v-1.28l2.71,0Z" style="fill:#fff"></path><path d="M286.7,154.23l-2.71,0V153c.9,0,1.81,0,2.71,0Z" style="fill:#fff"></path><path d="M286.7,159.72l-2.71,0v-1.27c.9,0,1.81,0,2.71,0Z" style="fill:#fff"></path><path d="M286.7,165.2c-.9,0-1.81,0-2.71,0V164l2.71,0Z" style="fill:#fff"></path><path d="M286.7,170.69c-.9,0-1.81,0-2.71,0v-1.28l2.71,0Z" style="fill:#fff"></path></g><path d="M289.92,173.14a.28.28,0,0,1-.13,0,.32.32,0,0,1-.15-.43q5.58-11.72,11.22-23.09a.27.27,0,0,1,.29-.16.34.34,0,0,1,.29.21q3.62,8,7.26,16.2,4.76-5.31,9.53-10.36a.3.3,0,0,1,.26-.07.46.46,0,0,1,.26.18q2.42,3.91,4.83,7.89,6.29-2.64,12.56-4.86a.37.37,0,0,1,.4.15q3.54,4.56,7,9.23c2.91-2.56,5.81-5.07,8.7-7.5,1.73-1.81,3.45-3.59,5.18-5.34a.24.24,0,0,1,.17-.06q9.45.9,18.76,2.73a.6.6,0,0,1,.39.41c0,.2-.05.32-.22.29-6.16-1.22-12.39-2.13-18.65-2.74q-2.55,2.61-5.12,5.28-4.47,3.74-8.94,7.7a.26.26,0,0,1-.23,0,.51.51,0,0,1-.25-.17q-3.56-4.72-7.12-9.31c-4.19,1.48-8.4,3.1-12.6,4.87a.37.37,0,0,1-.43-.18q-2.39-3.92-4.77-7.76-4.8,5.07-9.59,10.4a.27.27,0,0,1-.28.08.42.42,0,0,1-.26-.21q-3.6-8.09-7.18-16-5.49,11.06-10.94,22.47A.32.32,0,0,1,289.92,173.14Z" style="fill:#fff"></path></g></g><g id="Character"><path d="M350.16,391H149.84a6,6,0,0,0-4.15,1.57L128.62,409c-3,2.86-.47,7.23,4.14,7.23H367.23c4.62,0,7.12-4.37,4.15-7.23l-17.07-16.43A6,6,0,0,0,350.16,391Z" style="fill:#e11d48"></path><path d="M319.51,342.56h-.3l-43.28-85.23h-2.86l43.29,85.23h0a2,2,0,0,0-1.82,2.8l31.11,61.42H355l-31.24-61.67A4.68,4.68,0,0,0,319.51,342.56Z" style="fill:#e11d48"></path><path d="M178.16,344.5h0l42-83.13H223L181,344.5h0a2,2,0,0,1,1.77,2.88l-30.09,59.77h-9.29l30.09-59.78A5.25,5.25,0,0,1,178.16,344.5Z" style="fill:#e11d48"></path><path d="M348.21,399.17c0,3.17-44,5.74-98.21,5.74s-98.21-2.57-98.21-5.74,44-5.75,98.21-5.75S348.21,396,348.21,399.17Z" style="fill:#fff;opacity:0.6000000000000001"></path><polygon points="202.99 392.97 194.96 392.85 193.12 374.23 201.14 374.35 202.99 392.97" style="fill:#b55b52"></polygon><polygon points="324.2 389.64 316.71 392.52 303.24 375.86 310.74 372.98 324.2 389.64" style="fill:#b55b52"></polygon><path d="M314,391.31l8.77-4.35a.69.69,0,0,1,.85.18l4.59,5.69a1.17,1.17,0,0,1-.42,1.8c-2.84,1.35-5,2.21-8.53,4-2.19,1.08-5.87,2.41-13,2.41-3.3,0-3.81-3.33-2.43-3.64,6.18-1.35,8.23-2.57,9.21-5A1.93,1.93,0,0,1,314,391.31Z" style="fill:#263238"></path><path d="M195,391.92l8.77.14a.69.69,0,0,1,.67.55l1.47,7.16a1.16,1.16,0,0,1-1.17,1.41c-3.16-.1-7.73-.36-11.7-.42-4.65-.07-5.65.12-11.1,0-3.29-.05-4.15-3.39-2.77-3.67,6.3-1.28,8.41-1.35,13.89-4.61A3.74,3.74,0,0,1,195,391.92Z" style="fill:#263238"></path><path d="M227.62,205.4c-.87,1.52-1.67,2.83-2.56,4.2s-1.76,2.68-2.67,4q-2.74,4-5.84,7.71a87.4,87.4,0,0,1-6.68,7.26,51.72,51.72,0,0,1-8.05,6.5l-1.17.72-.32.18-.47.26a10,10,0,0,1-1,.46,11.34,11.34,0,0,1-4.32.84,14,14,0,0,1-7-2.13,24.15,24.15,0,0,1-4.51-3.57,43.93,43.93,0,0,1-3.45-3.89A74.79,74.79,0,0,1,170,211l5.32-2.82c1.71,2.37,3.53,4.84,5.41,7.12a74.76,74.76,0,0,0,5.81,6.49,23.33,23.33,0,0,0,6,4.57,3.05,3.05,0,0,0,1.83.41c.11,0,.11-.07.17-.12l0-.06,0,0,.17-.12.77-.55a49.42,49.42,0,0,0,6-5.53c1.92-2.09,3.77-4.31,5.56-6.62s3.5-4.72,5.18-7.15q1.27-1.83,2.47-3.69c.79-1.22,1.63-2.52,2.33-3.66Z" style="fill:#b55b52"></path><path d="M231.48,200.93c1.25,7.57-16.31,25.64-16.31,25.64l-14-11.68a98.37,98.37,0,0,1,12.76-16.62C221.1,191.08,230.1,192.62,231.48,200.93Z" style="fill:#263238"></path><path d="M219.18,208.82c-4.66,6-2.26,15.88-2.26,15.88a115.81,115.81,0,0,0,9.84-12.18C225,210,224.32,202.22,219.18,208.82Z" style="opacity:0.2"></path><path d="M176,209l-5.31-7.59L166.13,209s1.63,5.42,7.29,4Z" style="fill:#b55b52"></path><polygon points="165.05 199.33 162.15 206.86 166.13 209.02 170.68 201.37 165.05 199.33" style="fill:#b55b52"></polygon><polygon points="193.12 374.23 194.07 383.83 202.1 383.96 201.15 374.36 193.12 374.23" style="opacity:0.2"></polygon><polygon points="310.73 372.98 317.2 380.98 310.3 384.59 303.24 375.86 310.73 372.98" style="opacity:0.2"></polygon><path d="M262.82,194.85c-.9,29.47,6.43,57.33,7,63.48-6.24.84-29.75,3.95-42.56,5.64-14.84-43.57-8.64-68.85-8.64-68.85s2.59-1.08,6.17-2.23c1.13-.35,2.35-.72,3.62-1q1.06-.28,2.16-.54a157.9,157.9,0,0,1,18.09-2.39c1.15-.1,2.32-.17,3.46-.22s2.1-.06,3.08-.07h1.58A6.08,6.08,0,0,1,262.82,194.85Z" style="fill:#263238"></path><path d="M263,208.68l-6.1-5.19a18.6,18.6,0,0,0,6.57,12.45C263.22,213.56,263.07,211.14,263,208.68Z" style="opacity:0.2"></path><path d="M244.14,168.77c-.37,6-.1,16.79,4.49,20.14-2.75,3.56-6.4,7.74-13.28,8.9s-6.3-3.76-4.81-6.51c6.28-2.41,5.48-7.2,3.75-11.57Z" style="fill:#b55b52"></path><path d="M240.12,173.24l-5.83,6.48a18.4,18.4,0,0,1,1,3.14c2.43-.69,5.48-3.86,5.39-6.49A8.83,8.83,0,0,0,240.12,173.24Z" style="opacity:0.2"></path><path d="M224.75,151.82c-3.51,1.82-4.38,13,3.65,13.28S229.54,149.33,224.75,151.82Z" style="fill:#263238"></path><path d="M245.77,161.18c-1,7.91-1.11,12.59-5.36,16.42-6.39,5.78-16,1.56-17.4-6.47-1.28-7.24.5-18.95,8.45-21.65A10.86,10.86,0,0,1,245.77,161.18Z" style="fill:#b55b52"></path><path d="M244.38,167.1c-2.43.17-4.29-8-3.7-10.94-2.25-.28-21.08-.39-20.19-6.67s8.11-2.55,8.11-2.55-3.26-7,5.58-4.34,14.31,6.56,12.53,10C251.32,152.88,253,164.49,244.38,167.1Z" style="fill:#263238"></path><path d="M248.94,165.1h-8v-3.55h9a.33.33,0,0,1,.32.44l-1,2.88A.33.33,0,0,1,248.94,165.1Z" style="fill:#e11d48"></path><path d="M249.07,168.45a7.55,7.55,0,0,1-4,4.16c-2.44,1-4-1.06-3.62-3.54.35-2.24,2-5.48,4.63-5.47S250,166.15,249.07,168.45Z" style="fill:#b55b52"></path><path d="M227.23,264l28-3.7a206.14,206.14,0,0,1-2.38,22c-22,14.37-47.81,30.92-55.5,35.17,1.35,13.22,7.35,64.68,7.35,64.68l-13.59-.21s-15-37.19-15.31-62.66C175.51,294.77,227.23,264,227.23,264Z" style="fill:#263238"></path><path d="M237.32,291.75c2.17-1.26,4.36-2.53,6.52-3.83l-1.5-17.42S237.84,281.94,237.32,291.75Z" style="opacity:0.2"></path><path d="M242.34,270.5s-4.06,12.32-5.1,21.93l8.09-5.25Z" style="opacity:0.2"></path><path d="M239.33,262.37s3.34,48.45,15.24,68.73c13,22.22,50.41,51.26,50.41,51.26l12.08-5.57s-24.77-30-38.33-51.11c-15.45-24.08-5.45-47.22-8.94-67.34Z" style="fill:#263238"></path><polygon points="305.06 384.86 318.65 377.72 316.25 373.14 300.9 380.82 305.06 384.86" style="fill:#e11d48"></polygon><polygon points="189.38 382.22 205.57 382.47 205.65 377.24 187.56 376.68 189.38 382.22" style="fill:#e11d48"></polygon><path d="M233.6,162.69c0,.64-.41,1.15-.83,1.12s-.73-.57-.7-1.21.42-1.15.84-1.13S233.64,162,233.6,162.69Z" style="fill:#263238"></path><path d="M226.3,162.26c0,.64-.41,1.15-.84,1.12s-.73-.57-.69-1.21.41-1.15.83-1.13S226.34,161.61,226.3,162.26Z" style="fill:#263238"></path><path d="M228.6,162.71a23.17,23.17,0,0,1-3.41,5.35,3.74,3.74,0,0,0,3.05.76Z" style="fill:#a02724"></path><path d="M230.86,170.71a5.32,5.32,0,0,0,3.78-1.9.19.19,0,1,0-.31-.23,5.11,5.11,0,0,1-4.29,1.76.19.19,0,1,0,0,.38A5.83,5.83,0,0,0,230.86,170.71Z" style="fill:#263238"></path><path d="M236,160.89a.42.42,0,0,0,.19-.06.38.38,0,0,0,.1-.53,3.77,3.77,0,0,0-3-1.75.37.37,0,0,0-.37.38.38.38,0,0,0,.38.38h0a3,3,0,0,1,2.36,1.41A.37.37,0,0,0,236,160.89Z" style="fill:#263238"></path><path d="M223.31,159.71a.38.38,0,0,0,.35-.09,3,3,0,0,1,2.61-.86.4.4,0,0,0,.46-.29.38.38,0,0,0-.29-.45,3.72,3.72,0,0,0-3.3,1,.37.37,0,0,0,0,.53A.34.34,0,0,0,223.31,159.71Z" style="fill:#263238"></path><path d="M312.2,393.74a9.29,9.29,0,0,0,1.76-1.19.19.19,0,0,0,.06-.2.2.2,0,0,0-.17-.14c-.34,0-3.37-.3-4,.5a.62.62,0,0,0-.05.63,1.13,1.13,0,0,0,.8.72A2.43,2.43,0,0,0,312.2,393.74Zm1.15-1.19c-1.1.86-2.07,1.28-2.62,1.14a.77.77,0,0,1-.54-.5c-.06-.14,0-.21,0-.26C310.51,392.52,312.13,392.48,313.35,392.55Z" style="fill:#263238"></path><path d="M313.92,392.57a.18.18,0,0,0,.08-.07.21.21,0,0,0,0-.19c-.05-.09-1.25-2.08-2.43-2.35a1,1,0,0,0-.83.14h0a.62.62,0,0,0-.32.72c.24.88,2.46,1.74,3.41,1.77A.15.15,0,0,0,313.92,392.57Zm-2.9-2.19a.68.68,0,0,1,.47-.05c.75.18,1.58,1.27,2,1.84-1-.2-2.53-.93-2.68-1.45,0-.05,0-.16.17-.3h0Z" style="fill:#263238"></path><path d="M194.22,393a.17.17,0,0,0,.13-.15.17.17,0,0,0-.1-.19c-.36-.2-3.56-1.88-4.54-1.36a.62.62,0,0,0-.32.51h0a1.06,1.06,0,0,0,.34.93c.87.79,3.17.51,4.47.27ZM190,391.62c.61-.2,2.35.49,3.61,1.12-1.78.27-3.1.17-3.58-.27a.67.67,0,0,1-.22-.62.2.2,0,0,1,.12-.2Z" style="fill:#263238"></path><path d="M194.22,393l.05,0a.17.17,0,0,0,.08-.17c0-.09-.19-2.26-1.19-3.11a1.37,1.37,0,0,0-1-.34h0c-.53,0-.68.3-.72.52-.16.9,1.73,2.67,2.69,3.12A.17.17,0,0,0,194.22,393Zm-2.28-3.23.2,0h0a1,1,0,0,1,.77.26,4.45,4.45,0,0,1,1,2.49c-1-.61-2.26-2-2.16-2.54C191.77,389.92,191.79,389.83,191.94,389.78Zm.18-.22Z" style="fill:#263238"></path><path d="M259.57,191.29c4.66,1.52,9.15,3.18,13.66,5s8.95,3.72,13.37,5.82c1.1.54,2.2,1.07,3.3,1.63l.82.42.42.21.48.26c.64.34,1.29.74,1.93,1.16a17.64,17.64,0,0,1,3.85,3.43,11.44,11.44,0,0,1,1.65,2.69,9.74,9.74,0,0,1,.4,6.76,11.49,11.49,0,0,1-1.22,2.64,15.29,15.29,0,0,1-3.15,3.58,23.12,23.12,0,0,1-3.42,2.41A28.22,28.22,0,0,1,288,229l-3-5.25a30.58,30.58,0,0,0,4.19-4.55,8.34,8.34,0,0,0,1.12-2.13c.17-.62,0-.92-.06-.89s-.17,0-.53-.27a9.75,9.75,0,0,0-1.72-1c-.38-.18-.78-.36-1.22-.53l-1.52-.62c-1.07-.43-2.15-.85-3.24-1.27-4.32-1.71-8.74-3.31-13.15-4.91l-13.24-4.79Z" style="fill:#b55b52"></path><path d="M254.56,189.26c6.77-3.61,27.28,7.33,27.28,7.33l-6.6,17.28a156.65,156.65,0,0,1-19.07-7.52C246.46,201.61,246.36,193.63,254.56,189.26Z" style="fill:#263238"></path><path d="M286.39,223.13,279,226.46l5.46,7.31s5.18-3.22,5.54-6.34Z" style="fill:#b55b52"></path><polygon points="273.54 232.52 281.55 237.12 284.41 233.78 278.95 226.46 273.54 232.52" style="fill:#b55b52"></polygon><path d="M239.7,167.9H222.87a3.13,3.13,0,0,1-3.05-2.77l-.47-4.83a2.47,2.47,0,0,1,2.5-2.77h16.83a3.12,3.12,0,0,1,3,2.77l.48,4.83A2.47,2.47,0,0,1,239.7,167.9Z" style="fill:#e11d48"></path><path d="M239.7,167.9H222.87a3.13,3.13,0,0,1-3.05-2.77l-.47-4.83a2.47,2.47,0,0,1,2.5-2.77h16.83a3.12,3.12,0,0,1,3,2.77l.48,4.83A2.47,2.47,0,0,1,239.7,167.9Z" style="opacity:0.30000000000000004"></path><path d="M237.32,167.9H220.49a3.13,3.13,0,0,1-3-2.77L217,160.3a2.48,2.48,0,0,1,2.5-2.77h16.84a3.13,3.13,0,0,1,3,2.77l.47,4.83A2.47,2.47,0,0,1,237.32,167.9Z" style="fill:#e11d48"></path><polygon points="222.62 167.9 221.84 167.9 220.83 157.53 221.6 157.53 222.62 167.9" style="opacity:0.30000000000000004"></polygon><polygon points="235.97 167.9 235.19 167.9 234.18 157.53 234.95 157.53 235.97 167.9" style="opacity:0.30000000000000004"></polygon><path d="M234.86,158.78h-2.11a.25.25,0,0,1,0-.5h2.11a.25.25,0,0,1,0,.5Z" style="fill:#fff"></path><path d="M218.09,161.78a.25.25,0,0,1-.24-.23l-.12-1.23a1.83,1.83,0,0,1,1.84-2h10.48a.25.25,0,0,1,0,.5H219.57a1.33,1.33,0,0,0-1.35,1.49l.12,1.24a.24.24,0,0,1-.22.27Z" style="fill:#fff"></path><path d="M232.73,161.53h-8.9a.9.9,0,0,1-.88-.81h0a.72.72,0,0,1,.73-.81h8.89a.92.92,0,0,1,.89.81h0A.72.72,0,0,1,232.73,161.53Z" style="fill:#263238"></path><path d="M229.86,160.72c0,.28-.69.5-1.61.5s-1.67-.22-1.7-.5.69-.5,1.6-.5S229.83,160.45,229.86,160.72Z" style="fill:#e11d48"></path><rect x="221.24" y="251.11" width="51.64" height="16" rx="2.95" transform="matrix(1, -0.09, 0.09, 1, -22.26, 23.22)" style="fill:#e11d48"></rect><path d="M276.72,257.33a3.95,3.95,0,1,1-3.94-3.94A3.94,3.94,0,0,1,276.72,257.33Z" style="fill:#e11d48"></path><path d="M226,261.36a3.95,3.95,0,1,1-3.94-3.94A3.94,3.94,0,0,1,226,261.36Z" style="fill:#e11d48"></path><path d="M245.72,260.71l-17.29,1.56a3.9,3.9,0,0,1-4.24-3.53h0a3.9,3.9,0,0,1,3.54-4.23L245,253a3.9,3.9,0,0,1,4.23,3.53h0A3.89,3.89,0,0,1,245.72,260.71Z" style="opacity:0.1"></path><path d="M269.1,263.64l-5.47.49A1.22,1.22,0,0,1,262.3,263h0a1.23,1.23,0,0,1,1.11-1.34l5.47-.49a1.24,1.24,0,0,1,1.34,1.11h0A1.23,1.23,0,0,1,269.1,263.64Z" style="opacity:0.1"></path><path d="M260.5,264.42l-5.46.49a1.23,1.23,0,0,1-1.34-1.12h0a1.24,1.24,0,0,1,1.12-1.34l5.46-.49a1.23,1.23,0,0,1,1.34,1.12h0A1.23,1.23,0,0,1,260.5,264.42Z" style="opacity:0.1"></path><path d="M227.44,225.47a1,1,0,0,1-.55-.17,1,1,0,0,1-.22-1.32l12.91-18.12a1,1,0,0,1,1.32-.22.94.94,0,0,1,.22,1.31l-12.91,18.13A1,1,0,0,1,227.44,225.47Z" style="fill:#fff"></path><path d="M240.52,223.33a.91.91,0,0,1-.68-.3l-13.25-13.82a1,1,0,0,1,0-1.34.94.94,0,0,1,1.33,0l13.25,13.83a.94.94,0,0,1,0,1.33A.92.92,0,0,1,240.52,223.33Z" style="fill:#fff"></path></g></svg>
